<?xml version="1.0" standalone="no"?>
<!DOCTYPE svg PUBLIC "-//W3C//DTD SVG 20010904//EN"
 "http://www.w3.org/TR/2001/REC-SVG-20010904/DTD/svg10.dtd">
<svg version="1.0" xmlns="http://www.w3.org/2000/svg"
 width="512.000000pt" height="512.000000pt" viewBox="0 0 512.000000 512.000000"
 preserveAspectRatio="xMidYMid meet">
<metadata>
Created by potrace 1.16, written by Peter Selinger 2001-2019
</metadata>
<g transform="translate(0.000000,512.000000) scale(0.100000,-0.100000)"
fill="#000000" stroke="none">
<path d="M2323 4599 c-272 -32 -584 -138 -818 -280 -188 -113 -439 -336 -567
-504 -132 -174 -256 -408 -322 -610 -112 -344 -133 -703 -61 -1060 106 -525
434 -1010 880 -1301 341 -222 716 -333 1125 -334 245 0 430 29 658 105 756
252 1290 919 1383 1730 16 133 6 452 -15 520 -36 118 -170 177 -283 125 -23
-10 -66 -44 -94 -75 -359 -385 -956 -398 -1324 -30 -226 226 -320 563 -241
868 44 170 139 331 266 451 69 64 99 121 100 184 0 75 -46 154 -111 187 -60
32 -392 45 -576 24z m373 -205 l89 -6 -67 -70 c-417 -429 -421 -1122 -10
-1560 236 -252 591 -385 932 -349 269 28 510 141 685 320 27 28 52 51 56 51 4
0 10 -56 14 -124 22 -376 -90 -785 -304 -1108 l-62 -94 -52 17 c-63 22 -120
23 -210 4 -113 -24 -191 -68 -288 -165 -122 -121 -185 -243 -204 -392 l-7 -57
-87 -31 c-117 -43 -262 -77 -406 -96 -198 -27 -488 -8 -682 45 l-41 11 -4 88
c-6 148 -71 253 -196 314 -62 31 -74 33 -167 33 -89 0 -106 -3 -151 -27 -28
-15 -65 -39 -83 -54 -36 -30 -26 -34 -130 56 -184 160 -385 452 -478 698 -76
200 -112 383 -120 603 l-6 156 83 6 c322 22 489 395 295 660 -30 40 -87 90
-134 116 -27 16 135 246 279 395 375 390 915 598 1456 560z m-1790 -1186 c84
-91 68 -234 -33 -298 -42 -27 -109 -47 -120 -36 -8 8 26 153 64 268 38 116 42
119 89 66z m2884 -2009 c-66 -62 -233 -188 -261 -198 -18 -6 28 75 72 126 71
81 173 142 239 142 22 0 16 -9 -50 -70z m-2053 -190 c40 -15 81 -57 94 -96 6
-19 9 -37 6 -39 -5 -5 -159 68 -206 98 -28 17 -26 24 7 36 36 14 65 14 99 1z"/>
<path d="M1459 2196 c-145 -39 -232 -153 -232 -304 0 -63 4 -81 34 -139 139
-273 544 -201 584 103 21 153 -79 299 -230 339 -69 18 -94 18 -156 1z m142
-235 c21 -22 29 -39 29 -66 0 -27 -8 -44 -29 -66 -22 -21 -39 -29 -66 -29 -27
0 -44 8 -66 29 -21 22 -29 39 -29 66 0 27 8 44 29 66 22 21 39 29 66 29 27 0
44 -8 66 -29z"/>
</g>
</svg>
