<?xml version="1.0" standalone="no"?>
<!DOCTYPE svg PUBLIC "-//W3C//DTD SVG 20010904//EN"
 "http://www.w3.org/TR/2001/REC-SVG-20010904/DTD/svg10.dtd">
<svg version="1.0" xmlns="http://www.w3.org/2000/svg"
 width="512.000000pt" height="243.000000pt" viewBox="0 0 512.000000 243.000000"
 preserveAspectRatio="xMidYMid meet">
<metadata>
Created by potrace 1.16, written by Peter Selinger 2001-2019
</metadata>
<g transform="translate(0.000000,243.000000) scale(0.100000,-0.100000)"
fill="#000000" stroke="none">
<path d="M1070 2399 c-509 -60 -917 -433 -1026 -939 -26 -118 -26 -362 0 -480
51 -234 162 -438 331 -606 165 -163 373 -272 612 -321 82 -17 186 -18 1573
-18 1387 0 1491 1 1573 18 242 49 445 157 616 326 169 168 284 385 332 626 21
103 18 349 -5 455 -101 468 -445 813 -921 923 -89 21 -108 21 -1550 23 -803 1
-1494 -2 -1535 -7z m2261 -154 c-233 -137 -395 -318 -498 -554 l-32 -76 -848
-5 -848 -5 -67 -32 c-310 -146 -315 -549 -10 -700 l76 -38 848 -5 849 -5 32
-76 c104 -239 277 -429 512 -563 l80 -46 -1150 0 c-999 0 -1162 2 -1240 16
-391 68 -710 333 -841 699 -226 634 167 1307 836 1429 60 11 303 14 1234 15
l1160 1 -93 -55z m594 -357 c-69 -49 -145 -140 -184 -221 -128 -261 -75 -564
134 -772 124 -124 264 -185 425 -185 l75 0 -30 -25 c-52 -44 -154 -97 -233
-122 -168 -54 -341 -39 -511 44 -229 110 -381 354 -381 613 0 109 23 202 76
310 38 77 62 110 129 176 67 68 98 90 176 127 102 50 200 75 294 76 l60 0 -30
-21z m-1168 -420 c-3 -18 -11 -81 -18 -140 -12 -103 -6 -212 18 -355 l5 -33
-818 0 -819 0 -50 24 c-179 83 -222 317 -84 455 18 19 56 45 84 57 l50 24 819
0 818 0 -5 -32z"/>
</g>
</svg>
